<!-- Generated by IcoMoon.io -->
<svg version="1.1" xmlns="http://www.w3.org/2000/svg" width="32" height="32" viewBox="0 0 32 32">
<title>close_cross_delete_remove_icon</title>
<path d="M5.511 3.111l-2.4 2.4c-0.622 0.622-0.622 1.689 0 2.4l8.178 8.178-8.178 8.178c-0.622 0.622-0.622 1.689 0 2.4l2.311 2.311c0.622 0.622 1.689 0.622 2.4 0l8.178-8.178 8.178 8.178c0.622 0.622 1.689 0.622 2.4 0l2.311-2.311c0.622-0.622 0.622-1.689 0-2.4l-8.178-8.267 8.178-8.178c0.622-0.622 0.622-1.689 0-2.4l-2.311-2.311c-0.622-0.622-1.689-0.622-2.4 0l-8.178 8.178-8.178-8.178c-0.622-0.622-1.689-0.622-2.311 0z"></path>
</svg>
