<svg xmlns="http://www.w3.org/2000/svg" viewBox="0 0 512 280">

 <g id="envelope">
    <g id="g304">
      <path id="path306" d="M249.266 298.798L351.208 218.764C357.652 213.705 366.657 213.705 373.102 218.764L475.045 298.798V432.924H249.266V298.798Z" fill="#006666"/>
    </g>
    <path id="path308" d="M448.926 227.706H275.382V421.076H448.926V227.706Z" fill="#FAFAFA"/>
    <path id="path310" d="M438.481 239.346H285.831V245.241H438.481V239.346Z" fill="#DCDCDC"/>
    <path id="path312" d="M415.561 251.195H285.831V257.09H415.561V251.195Z" fill="#DCDCDC"/>
    <path id="path314" d="M394.51 263.044H285.831V268.939H394.51V263.044Z" fill="#DCDCDC"/>
    <path id="path316" d="M394.51 285.792H285.831V291.688H394.51V285.792Z" fill="#DCDCDC"/>
    <path id="path318" d="M366.443 297.167H285.831V303.062H366.443V297.167Z" fill="#DCDCDC"/>
    <path id="path320" d="M442.769 321H362.156V326.896H442.769V321Z" fill="#DCDCDC"/>
    <path id="path322" d="M442.768 332.609H377.201V338.504H442.768V332.609Z" fill="#DCDCDC"/>
    <g id="g324">
      <path id="path326" d="M362.155 365.9L249.265 298.877V432.924L362.155 365.9Z" fill="#009999"/>
    </g>
    <g id="g328">
      <path id="path330" d="M362.156 365.9L475.045 298.877V432.924L362.156 365.9Z" fill="#009999"/>
    </g>
    <g id="g332">
      <path id="path334" d="M351.209 352.89L249.267 432.924H475.044L373.102 352.89C366.658 347.831 357.652 347.831 351.209 352.89Z" fill="#00cccc"/>
    </g>
  </g>
</svg>

